<svg xmlns="http://www.w3.org/2000/svg" xmlns:xlink="http://www.w3.org/1999/xlink" contentStyleType="text/css" data-diagram-type="SEQUENCE" height="1036px" preserveAspectRatio="none" style="width:1034px;height:1036px;background:#FFFFFF;" version="1.1" viewBox="0 0 1034 1036" width="1034px" zoomAndPan="magnify"><defs/><g><g><title>User</title><rect fill="#FFFFFF" height="846.5859" style="stroke:#181818;stroke-width:1;" width="10" x="18.9551" y="91.2969"/></g><g><title>Platform</title><rect fill="#FF9F12" height="87.3984" style="stroke:#181818;stroke-width:1;" width="10" x="313.1602" y="155.5625"/></g><g><title>Platform</title><rect fill="#FF9F12" height="362.5938" style="stroke:#181818;stroke-width:1;" width="10" x="313.1602" y="315.2266"/></g><g><title>Platform</title><rect fill="#FF9F12" height="187.7969" style="stroke:#181818;stroke-width:1;" width="10" x="313.1602" y="750.0859"/></g><g><title>Inventory</title><rect fill="#5E9235" height="29.1328" style="stroke:#181818;stroke-width:1;" width="10" x="645.1719" y="344.3594"/></g><g><title>Inventory</title><rect fill="#5E9235" height="29.1328" style="stroke:#181818;stroke-width:1;" width="10" x="645.1719" y="561.2891"/></g><g><title>Inventory</title><rect fill="#5E9235" height="87.3984" style="stroke:#181818;stroke-width:1;" width="10" x="645.1719" y="821.3516"/></g><g><title>PaymentSystem</title><rect fill="#E81D0B" height="29.1328" style="stroke:#181818;stroke-width:1;" width="10" x="759.6694" y="503.0234"/></g><g><title>Database</title><rect fill="#7956EA" height="29.1328" style="stroke:#181818;stroke-width:1;" width="10" x="976.6567" y="184.6953"/></g><g><title>Database</title><rect fill="#7956EA" height="29.1328" style="stroke:#181818;stroke-width:1;" width="10" x="976.6567" y="850.4844"/></g><g><title>User</title><rect fill="#000000" fill-opacity="0.00000" height="874.5859" width="8" x="19.9551" y="81.2969"/><line style="stroke:#181818;stroke-width:0.5;stroke-dasharray:5.0,5.0;" x1="23" x2="23" y1="81.2969" y2="955.8828"/></g><g><title>Platform</title><rect fill="#000000" fill-opacity="0.00000" height="874.5859" width="8" x="314.1602" y="81.2969"/><line style="stroke:#181818;stroke-width:0.5;stroke-dasharray:5.0,5.0;" x1="317.5161" x2="317.5161" y1="81.2969" y2="955.8828"/></g><g><title>Inventory</title><rect fill="#000000" fill-opacity="0.00000" height="874.5859" width="8" x="646.1719" y="81.2969"/><line style="stroke:#181818;stroke-width:0.5;stroke-dasharray:5.0,5.0;" x1="649.7373" x2="649.7373" y1="81.2969" y2="955.8828"/></g><g><title>PaymentSystem</title><rect fill="#000000" fill-opacity="0.00000" height="874.5859" width="8" x="760.6694" y="81.2969"/><line style="stroke:#181818;stroke-width:0.5;stroke-dasharray:5.0,5.0;" x1="764.6064" x2="764.6064" y1="81.2969" y2="955.8828"/></g><g><title>Database</title><rect fill="#000000" fill-opacity="0.00000" height="874.5859" width="8" x="977.6567" y="81.2969"/><line style="stroke:#181818;stroke-width:0.5;stroke-dasharray:5.0,5.0;" x1="981.2563" x2="981.2563" y1="81.2969" y2="955.8828"/></g><g class="participant participant-head" data-participant="User"><text fill="#000000" font-family="sans-serif" font-size="14" lengthAdjust="spacing" textLength="31.9102" x="5" y="77.9951">User</text><ellipse cx="23.9551" cy="13.5" fill="#F6F645" rx="8" ry="8" style="stroke:#181818;stroke-width:0.5;"/><path d="M23.9551,21.5 L23.9551,48.5 M10.9551,29.5 L36.9551,29.5 M23.9551,48.5 L10.9551,63.5 M23.9551,48.5 L36.9551,63.5 " fill="none" style="stroke:#181818;stroke-width:0.5;"/></g><g class="participant participant-tail" data-participant="User"><text fill="#000000" font-family="sans-serif" font-size="14" lengthAdjust="spacing" textLength="31.9102" x="5" y="967.8779">User</text><ellipse cx="23.9551" cy="979.6797" fill="#F6F645" rx="8" ry="8" style="stroke:#181818;stroke-width:0.5;"/><path d="M23.9551,987.6797 L23.9551,1014.6797 M10.9551,995.6797 L36.9551,995.6797 M23.9551,1014.6797 L10.9551,1029.6797 M23.9551,1014.6797 L36.9551,1029.6797 " fill="none" style="stroke:#181818;stroke-width:0.5;"/></g><g class="participant participant-head" data-participant="Platform"><rect fill="#E2E2F0" height="30.2969" rx="2.5" ry="2.5" style="stroke:#181818;stroke-width:0.5;" width="73.2881" x="281.5161" y="50"/><text fill="#000000" font-family="sans-serif" font-size="14" lengthAdjust="spacing" textLength="59.2881" x="288.5161" y="69.9951">Platform</text></g><g class="participant participant-tail" data-participant="Platform"><rect fill="#E2E2F0" height="30.2969" rx="2.5" ry="2.5" style="stroke:#181818;stroke-width:0.5;" width="73.2881" x="281.5161" y="954.8828"/><text fill="#000000" font-family="sans-serif" font-size="14" lengthAdjust="spacing" textLength="59.2881" x="288.5161" y="974.8779">Platform</text></g><g class="participant participant-head" data-participant="Inventory"><rect fill="#E2E2F0" height="30.2969" rx="2.5" ry="2.5" style="stroke:#181818;stroke-width:0.5;" width="80.8691" x="609.7373" y="50"/><text fill="#000000" font-family="sans-serif" font-size="14" lengthAdjust="spacing" textLength="66.8691" x="616.7373" y="69.9951">Inventory</text></g><g class="participant participant-tail" data-participant="Inventory"><rect fill="#E2E2F0" height="30.2969" rx="2.5" ry="2.5" style="stroke:#181818;stroke-width:0.5;" width="80.8691" x="609.7373" y="954.8828"/><text fill="#000000" font-family="sans-serif" font-size="14" lengthAdjust="spacing" textLength="66.8691" x="616.7373" y="974.8779">Inventory</text></g><g class="participant participant-head" data-participant="PaymentSystem"><rect fill="#E2E2F0" height="30.2969" rx="2.5" ry="2.5" style="stroke:#181818;stroke-width:0.5;" width="128.126" x="700.6064" y="50"/><text fill="#000000" font-family="sans-serif" font-size="14" lengthAdjust="spacing" textLength="114.126" x="707.6064" y="69.9951">PaymentSystem</text></g><g class="participant participant-tail" data-participant="PaymentSystem"><rect fill="#E2E2F0" height="30.2969" rx="2.5" ry="2.5" style="stroke:#181818;stroke-width:0.5;" width="128.126" x="700.6064" y="954.8828"/><text fill="#000000" font-family="sans-serif" font-size="14" lengthAdjust="spacing" textLength="114.126" x="707.6064" y="974.8779">PaymentSystem</text></g><g class="participant participant-head" data-participant="Database"><rect fill="#E2E2F0" height="30.2969" rx="2.5" ry="2.5" style="stroke:#181818;stroke-width:0.5;" width="80.8008" x="941.2563" y="50"/><text fill="#000000" font-family="sans-serif" font-size="14" lengthAdjust="spacing" textLength="66.8008" x="948.2563" y="69.9951">Database</text></g><g class="participant participant-tail" data-participant="Database"><rect fill="#E2E2F0" height="30.2969" rx="2.5" ry="2.5" style="stroke:#181818;stroke-width:0.5;" width="80.8008" x="941.2563" y="954.8828"/><text fill="#000000" font-family="sans-serif" font-size="14" lengthAdjust="spacing" textLength="66.8008" x="948.2563" y="974.8779">Database</text></g><g><title>User</title><rect fill="#FFFFFF" height="846.5859" style="stroke:#181818;stroke-width:1;" width="10" x="18.9551" y="91.2969"/></g><g><title>Platform</title><rect fill="#FF9F12" height="87.3984" style="stroke:#181818;stroke-width:1;" width="10" x="313.1602" y="155.5625"/></g><g><title>Platform</title><rect fill="#FF9F12" height="362.5938" style="stroke:#181818;stroke-width:1;" width="10" x="313.1602" y="315.2266"/></g><g><title>Platform</title><rect fill="#FF9F12" height="187.7969" style="stroke:#181818;stroke-width:1;" width="10" x="313.1602" y="750.0859"/></g><g><title>Inventory</title><rect fill="#5E9235" height="29.1328" style="stroke:#181818;stroke-width:1;" width="10" x="645.1719" y="344.3594"/></g><g><title>Inventory</title><rect fill="#5E9235" height="29.1328" style="stroke:#181818;stroke-width:1;" width="10" x="645.1719" y="561.2891"/></g><g><title>Inventory</title><rect fill="#5E9235" height="87.3984" style="stroke:#181818;stroke-width:1;" width="10" x="645.1719" y="821.3516"/></g><g><title>PaymentSystem</title><rect fill="#E81D0B" height="29.1328" style="stroke:#181818;stroke-width:1;" width="10" x="759.6694" y="503.0234"/></g><g><title>Database</title><rect fill="#7956EA" height="29.1328" style="stroke:#181818;stroke-width:1;" width="10" x="976.6567" y="184.6953"/></g><g><title>Database</title><rect fill="#7956EA" height="29.1328" style="stroke:#181818;stroke-width:1;" width="10" x="976.6567" y="850.4844"/></g><rect fill="#EEEEEE" height="3" style="stroke:#EEEEEE;stroke-width:1;" width="1027.0571" x="0" y="111.8633"/><line style="stroke:#000000;stroke-width:1;" x1="0" x2="1027.0571" y1="111.8633" y2="111.8633"/><line style="stroke:#000000;stroke-width:1;" x1="0" x2="1027.0571" y1="114.8633" y2="114.8633"/><rect fill="#EEEEEE" height="23.1328" style="stroke:#000000;stroke-width:2;" width="54.2314" x="486.4128" y="101.2969"/><text fill="#000000" font-family="sans-serif" font-size="13" font-weight="bold" lengthAdjust="spacing" textLength="40.2314" x="492.4128" y="117.3638">Login</text><g class="message" data-participant-1="User" data-participant-2="Platform"><polygon fill="#181818" points="301.1602,151.5625,311.1602,155.5625,301.1602,159.5625,305.1602,155.5625" style="stroke:#181818;stroke-width:1;"/><line style="stroke:#181818;stroke-width:1;" x1="28.9551" x2="307.1602" y1="155.5625" y2="155.5625"/><text fill="#000000" font-family="sans-serif" font-size="13" lengthAdjust="spacing" textLength="185.0088" x="35.9551" y="150.4966">Login (username, password)</text></g><g class="message" data-participant-1="Platform" data-participant-2="Database"><polygon fill="#181818" points="964.6567,180.6953,974.6567,184.6953,964.6567,188.6953,968.6567,184.6953" style="stroke:#181818;stroke-width:1;"/><line style="stroke:#181818;stroke-width:1;" x1="323.1602" x2="970.6567" y1="184.6953" y2="184.6953"/><text fill="#000000" font-family="sans-serif" font-size="13" lengthAdjust="spacing" textLength="129.5684" x="330.1602" y="179.6294">Validate credentials</text></g><g class="message" data-participant-1="Database" data-participant-2="Platform"><polygon fill="#181818" points="334.1602,209.8281,324.1602,213.8281,334.1602,217.8281,330.1602,213.8281" style="stroke:#181818;stroke-width:1;"/><line style="stroke:#181818;stroke-width:1;stroke-dasharray:2.0,2.0;" x1="328.1602" x2="980.6567" y1="213.8281" y2="213.8281"/><text fill="#000000" font-family="sans-serif" font-size="13" lengthAdjust="spacing" textLength="305.4302" x="340.1602" y="208.7622">User ID / Authentication Token / Error Message</text></g><g class="message" data-participant-1="Platform" data-participant-2="User"><polygon fill="#181818" points="39.9551,238.9609,29.9551,242.9609,39.9551,246.9609,35.9551,242.9609" style="stroke:#181818;stroke-width:1;"/><line style="stroke:#181818;stroke-width:1;stroke-dasharray:2.0,2.0;" x1="33.9551" x2="317.1602" y1="242.9609" y2="242.9609"/><text fill="#000000" font-family="sans-serif" font-size="13" lengthAdjust="spacing" textLength="195.4189" x="45.9551" y="237.895">Login Result (Success/Failure)</text></g><rect fill="#EEEEEE" height="3" style="stroke:#EEEEEE;stroke-width:1;" width="1027.0571" x="0" y="271.5273"/><line style="stroke:#000000;stroke-width:1;" x1="0" x2="1027.0571" y1="271.5273" y2="271.5273"/><line style="stroke:#000000;stroke-width:1;" x1="0" x2="1027.0571" y1="274.5273" y2="274.5273"/><rect fill="#EEEEEE" height="23.1328" style="stroke:#000000;stroke-width:2;" width="66.603" x="480.2271" y="260.9609"/><text fill="#000000" font-family="sans-serif" font-size="13" font-weight="bold" lengthAdjust="spacing" textLength="52.603" x="486.2271" y="277.0278">Borrow</text><g class="message" data-participant-1="User" data-participant-2="Platform"><polygon fill="#181818" points="301.1602,311.2266,311.1602,315.2266,301.1602,319.2266,305.1602,315.2266" style="stroke:#181818;stroke-width:1;"/><line style="stroke:#181818;stroke-width:1;" x1="28.9551" x2="307.1602" y1="315.2266" y2="315.2266"/><text fill="#000000" font-family="sans-serif" font-size="13" lengthAdjust="spacing" textLength="150.1982" x="35.9551" y="310.1606">Select Outfit (Outfit ID)</text></g><g class="message" data-participant-1="Platform" data-participant-2="Inventory"><polygon fill="#181818" points="633.1719,340.3594,643.1719,344.3594,633.1719,348.3594,637.1719,344.3594" style="stroke:#181818;stroke-width:1;"/><line style="stroke:#181818;stroke-width:1;" x1="323.1602" x2="639.1719" y1="344.3594" y2="344.3594"/><text fill="#000000" font-family="sans-serif" font-size="13" lengthAdjust="spacing" textLength="184.8501" x="330.1602" y="339.2935">Check Availability (Outfit ID)</text></g><g class="message" data-participant-1="Inventory" data-participant-2="Platform"><polygon fill="#181818" points="334.1602,369.4922,324.1602,373.4922,334.1602,377.4922,330.1602,373.4922" style="stroke:#181818;stroke-width:1;"/><line style="stroke:#181818;stroke-width:1;stroke-dasharray:2.0,2.0;" x1="328.1602" x2="649.1719" y1="373.4922" y2="373.4922"/><text fill="#000000" font-family="sans-serif" font-size="13" lengthAdjust="spacing" textLength="140.4165" x="340.1602" y="368.4263">Available/Unavailable</text></g><g class="message" data-participant-1="Platform" data-participant-2="Platform"><line style="stroke:#181818;stroke-width:1;" x1="323.1602" x2="365.1602" y1="402.625" y2="402.625"/><line style="stroke:#181818;stroke-width:1;" x1="365.1602" x2="365.1602" y1="402.625" y2="415.625"/><line style="stroke:#181818;stroke-width:1;" x1="324.1602" x2="365.1602" y1="415.625" y2="415.625"/><polygon fill="#181818" points="334.1602,411.625,324.1602,415.625,334.1602,419.625,330.1602,415.625" style="stroke:#181818;stroke-width:1;"/><text fill="#000000" font-family="sans-serif" font-size="13" lengthAdjust="spacing" textLength="143.3047" x="330.1602" y="397.5591">Add to Cart (Outfit ID)</text></g><g class="message" data-participant-1="Platform" data-participant-2="User"><polygon fill="#181818" points="39.9551,440.7578,29.9551,444.7578,39.9551,448.7578,35.9551,444.7578" style="stroke:#181818;stroke-width:1;"/><line style="stroke:#181818;stroke-width:1;" x1="33.9551" x2="312.1602" y1="444.7578" y2="444.7578"/><text fill="#000000" font-family="sans-serif" font-size="13" lengthAdjust="spacing" textLength="128.5781" x="45.9551" y="439.6919">Outfit added to cart</text></g><g class="message" data-participant-1="User" data-participant-2="Platform"><polygon fill="#181818" points="301.1602,469.8906,311.1602,473.8906,301.1602,477.8906,305.1602,473.8906" style="stroke:#181818;stroke-width:1;"/><line style="stroke:#181818;stroke-width:1;" x1="28.9551" x2="307.1602" y1="473.8906" y2="473.8906"/><text fill="#000000" font-family="sans-serif" font-size="13" lengthAdjust="spacing" textLength="131.3457" x="35.9551" y="468.8247">Proceed to Payment</text></g><g class="message" data-participant-1="Platform" data-participant-2="PaymentSystem"><polygon fill="#181818" points="747.6694,499.0234,757.6694,503.0234,747.6694,507.0234,751.6694,503.0234" style="stroke:#181818;stroke-width:1;"/><line style="stroke:#181818;stroke-width:1;" x1="323.1602" x2="753.6694" y1="503.0234" y2="503.0234"/><text fill="#000000" font-family="sans-serif" font-size="13" lengthAdjust="spacing" textLength="202.4204" x="330.1602" y="497.9575">Process Payment (Cart Details)</text></g><g class="message" data-participant-1="PaymentSystem" data-participant-2="Platform"><polygon fill="#181818" points="334.1602,528.1563,324.1602,532.1563,334.1602,536.1563,330.1602,532.1563" style="stroke:#181818;stroke-width:1;"/><line style="stroke:#181818;stroke-width:1;stroke-dasharray:2.0,2.0;" x1="328.1602" x2="763.6694" y1="532.1563" y2="532.1563"/><text fill="#000000" font-family="sans-serif" font-size="13" lengthAdjust="spacing" textLength="211.0342" x="340.1602" y="527.0903">Payment Confirmation/Rejection</text></g><g class="message" data-participant-1="Platform" data-participant-2="Inventory"><polygon fill="#181818" points="633.1719,557.2891,643.1719,561.2891,633.1719,565.2891,637.1719,561.2891" style="stroke:#181818;stroke-width:1;"/><line style="stroke:#181818;stroke-width:1;" x1="323.1602" x2="639.1719" y1="561.2891" y2="561.2891"/><text fill="#000000" font-family="sans-serif" font-size="13" lengthAdjust="spacing" textLength="303.0117" x="330.1602" y="556.2231">Update Inventory (Outfit ID, Status: Borrowed)</text></g><g class="message" data-participant-1="Inventory" data-participant-2="Platform"><polygon fill="#181818" points="334.1602,586.4219,324.1602,590.4219,334.1602,594.4219,330.1602,590.4219" style="stroke:#181818;stroke-width:1;"/><line style="stroke:#181818;stroke-width:1;stroke-dasharray:2.0,2.0;" x1="328.1602" x2="649.1719" y1="590.4219" y2="590.4219"/><text fill="#000000" font-family="sans-serif" font-size="13" lengthAdjust="spacing" textLength="121.5576" x="340.1602" y="585.356">Inventory Updated</text></g><g class="message" data-participant-1="Platform" data-participant-2="User"><polygon fill="#181818" points="39.9551,615.5547,29.9551,619.5547,39.9551,623.5547,35.9551,619.5547" style="stroke:#181818;stroke-width:1;"/><line style="stroke:#181818;stroke-width:1;" x1="33.9551" x2="312.1602" y1="619.5547" y2="619.5547"/><text fill="#000000" font-family="sans-serif" font-size="13" lengthAdjust="spacing" textLength="240.2397" x="45.9551" y="614.4888">Booking Confirmed (Booking Details)</text></g><g class="message" data-participant-1="Platform" data-participant-2="User"><polygon fill="#181818" points="39.9551,644.6875,29.9551,648.6875,39.9551,652.6875,35.9551,648.6875" style="stroke:#181818;stroke-width:1;"/><line style="stroke:#181818;stroke-width:1;" x1="33.9551" x2="312.1602" y1="648.6875" y2="648.6875"/><text fill="#000000" font-family="sans-serif" font-size="13" lengthAdjust="spacing" textLength="100.5469" x="45.9551" y="643.6216">Payment Failed</text></g><g class="message" data-participant-1="Platform" data-participant-2="User"><polygon fill="#181818" points="39.9551,673.8203,29.9551,677.8203,39.9551,681.8203,35.9551,677.8203" style="stroke:#181818;stroke-width:1;"/><line style="stroke:#181818;stroke-width:1;" x1="33.9551" x2="317.1602" y1="677.8203" y2="677.8203"/><text fill="#000000" font-family="sans-serif" font-size="13" lengthAdjust="spacing" textLength="117.4189" x="45.9551" y="672.7544">Outfit Unavailable</text></g><rect fill="#EEEEEE" height="3" style="stroke:#EEEEEE;stroke-width:1;" width="1027.0571" x="0" y="706.3867"/><line style="stroke:#000000;stroke-width:1;" x1="0" x2="1027.0571" y1="706.3867" y2="706.3867"/><line style="stroke:#000000;stroke-width:1;" x1="0" x2="1027.0571" y1="709.3867" y2="709.3867"/><rect fill="#EEEEEE" height="23.1328" style="stroke:#000000;stroke-width:2;" width="49.6611" x="488.698" y="695.8203"/><text fill="#000000" font-family="sans-serif" font-size="13" font-weight="bold" lengthAdjust="spacing" textLength="35.6611" x="494.698" y="711.8872">Lend</text><g class="message" data-participant-1="User" data-participant-2="Platform"><polygon fill="#181818" points="301.1602,746.0859,311.1602,750.0859,301.1602,754.0859,305.1602,750.0859" style="stroke:#181818;stroke-width:1;"/><line style="stroke:#181818;stroke-width:1;" x1="28.9551" x2="307.1602" y1="750.0859" y2="750.0859"/><text fill="#000000" font-family="sans-serif" font-size="13" lengthAdjust="spacing" textLength="265.2051" x="35.9551" y="745.02">add an outfit (name, size, description, ..)</text></g><g class="message" data-participant-1="Platform" data-participant-2="Platform"><line style="stroke:#181818;stroke-width:1;" x1="323.1602" x2="365.1602" y1="779.2188" y2="779.2188"/><line style="stroke:#181818;stroke-width:1;" x1="365.1602" x2="365.1602" y1="779.2188" y2="792.2188"/><line style="stroke:#181818;stroke-width:1;" x1="324.1602" x2="365.1602" y1="792.2188" y2="792.2188"/><polygon fill="#181818" points="334.1602,788.2188,324.1602,792.2188,334.1602,796.2188,330.1602,792.2188" style="stroke:#181818;stroke-width:1;"/><text fill="#000000" font-family="sans-serif" font-size="13" lengthAdjust="spacing" textLength="245.9717" x="330.1602" y="774.1528">Validate input(check for empty fields)</text></g><g class="message" data-participant-1="Platform" data-participant-2="Inventory"><polygon fill="#181818" points="633.1719,817.3516,643.1719,821.3516,633.1719,825.3516,637.1719,821.3516" style="stroke:#181818;stroke-width:1;"/><line style="stroke:#181818;stroke-width:1;" x1="323.1602" x2="639.1719" y1="821.3516" y2="821.3516"/><text fill="#000000" font-family="sans-serif" font-size="13" lengthAdjust="spacing" textLength="297.3687" x="330.1602" y="816.2856">Add outfit details (name, size, description, ...)</text></g><g class="message" data-participant-1="Inventory" data-participant-2="Database"><polygon fill="#181818" points="964.6567,846.4844,974.6567,850.4844,964.6567,854.4844,968.6567,850.4844" style="stroke:#181818;stroke-width:1;"/><line style="stroke:#181818;stroke-width:1;" x1="655.1719" x2="970.6567" y1="850.4844" y2="850.4844"/><text fill="#000000" font-family="sans-serif" font-size="13" lengthAdjust="spacing" textLength="302.4849" x="662.1719" y="845.4185">Store outfit details(name, size, description, ...)</text></g><g class="message" data-participant-1="Database" data-participant-2="Inventory"><polygon fill="#181818" points="666.1719,875.6172,656.1719,879.6172,666.1719,883.6172,662.1719,879.6172" style="stroke:#181818;stroke-width:1;"/><line style="stroke:#181818;stroke-width:1;stroke-dasharray:2.0,2.0;" x1="660.1719" x2="980.6567" y1="879.6172" y2="879.6172"/><text fill="#000000" font-family="sans-serif" font-size="13" lengthAdjust="spacing" textLength="100.9595" x="672.1719" y="874.5513">Success/Failure</text></g><g class="message" data-participant-1="Inventory" data-participant-2="Platform"><polygon fill="#181818" points="334.1602,904.75,324.1602,908.75,334.1602,912.75,330.1602,908.75" style="stroke:#181818;stroke-width:1;"/><line style="stroke:#181818;stroke-width:1;stroke-dasharray:2.0,2.0;" x1="328.1602" x2="649.1719" y1="908.75" y2="908.75"/><text fill="#000000" font-family="sans-serif" font-size="13" lengthAdjust="spacing" textLength="164.4233" x="340.1602" y="903.6841">Outfit added successfully</text></g><g class="message" data-participant-1="Platform" data-participant-2="User"><polygon fill="#181818" points="34.9551,933.8828,24.9551,937.8828,34.9551,941.8828,30.9551,937.8828" style="stroke:#181818;stroke-width:1;"/><line style="stroke:#181818;stroke-width:1;stroke-dasharray:2.0,2.0;" x1="28.9551" x2="317.1602" y1="937.8828" y2="937.8828"/><text fill="#000000" font-family="sans-serif" font-size="13" lengthAdjust="spacing" textLength="242.8931" x="40.9551" y="932.8169">Confirmation of adding outfit to store</text></g><line style="stroke:#A80036;stroke-width:2;" x1="309.1602" x2="327.1602" y1="928.8828" y2="946.8828"/><line style="stroke:#A80036;stroke-width:2;" x1="309.1602" x2="327.1602" y1="946.8828" y2="928.8828"/><line style="stroke:#A80036;stroke-width:2;" x1="641.1719" x2="659.1719" y1="928.8828" y2="946.8828"/><line style="stroke:#A80036;stroke-width:2;" x1="641.1719" x2="659.1719" y1="946.8828" y2="928.8828"/><line style="stroke:#A80036;stroke-width:2;" x1="755.6694" x2="773.6694" y1="928.8828" y2="946.8828"/><line style="stroke:#A80036;stroke-width:2;" x1="755.6694" x2="773.6694" y1="946.8828" y2="928.8828"/><line style="stroke:#A80036;stroke-width:2;" x1="972.6567" x2="990.6567" y1="928.8828" y2="946.8828"/><line style="stroke:#A80036;stroke-width:2;" x1="972.6567" x2="990.6567" y1="946.8828" y2="928.8828"/><!--SRC=[ZLLDRzim3BtxLn389GNIPksMR0dW0Mso0GKsj6ZMtLM9RhNQaY79BR9VF_fRwkmqbyIWoKVoyP5ct6a3znODJ99biloqY79cdEGoPyh1RSfSeaqM6A_L2oeAsuUkR9-HURUt3hCeYkCV-b6gE8Q8SITVcCCgJLJbEltQGQ-XSeHfGIyKot06ERFsLHjnqeUstbHbiahEBwBEG51RvjW3ixY6tooLelJd1WLL8rbgUv3M3oQVLuibigWpd0O5LILURs4EbuLxAc4uSr8h-AMVKP7vcp74sa-qbZrY9F2_35vvX5pYjMtUeIrI1zDTmJd5pxypcHO6JtoKZdLYyKfJhjSu7k1jXobo1pU5IoGXDl_NssDfw-QuXiqJycUuVA5Ys8DCfTiFutKXC5dWwkBZ8efwKqXY0vRY_5wnzjdlifUHNvG780Gu3HlIM52CxrqpsxnaGc0LmYbaWAzRepdM7erOmyo-W1jlQripJAj2jkYe5UjJx8V11B-SYmyFKMWDcMaHDrebqcILjEPt-8U6IK-148AT6fdTVIx2qVHapM3dc2li6cePeJWuox5HzlOwbtX_ZFLWhhH-bkgnxPIudxQcZiY1i9QWSZSesUZ0HuJLhG_T85HYS7T8Ay0Kw6PtwhjZvL_w5MYvaNavYncSdHsxJJrsTuIaoWitvTLkqIl0BAV5IYIcmfwCZREKVLEMg3awMDxPiHFrp-IEJFWcox593XzHhv4t5sxmJ8ufBjXeMmCbHPhktrDU9n5_kK0d9LGfkwPdEW6sv61GDfwj-c8H6SxelUzG6_e2EfTWOLjhs-u_]--></g></svg>