<svg xmlns="http://www.w3.org/2000/svg" viewBox="0 0 1418 1320"><defs><style>.cls-1{fill:#fffefd;}.cls-2{font-size:92px;font-family:PalatinoLinotype-Bold, Palatino Linotype;}.cls-12,.cls-2{font-weight:700;}.cls-3{letter-spacing:-0.03em;}.cls-4{fill:#083736;}.cls-5{fill:#007a78;}.cls-6{fill:#6bd4d3;}.cls-7{fill:#66381f;}.cls-8{fill:#9a5833;}.cls-9{fill:#efbc9f;}.cls-10{fill:#e66eb2;}.cls-11{fill:#ffec29;}.cls-12{font-size:165.36px;font-family:Arial-BoldMT, Arial;}.cls-13{letter-spacing:-0.07em;}.cls-14{font-size:37.64px;font-family:ArialMT, Arial;}</style></defs><g id="Layer_2" data-name="Layer 2"><g id="Layer_1-2" data-name="Layer 1"><rect class="cls-1" width="1418" height="1320"/><text class="cls-2" transform="translate(219.38 1241.14)"><tspan class="cls-3">P</tspan><tspan x="53.23" y="0">alatino Linotype (Bold)</tspan></text><circle class="cls-4" cx="305" cy="357" r="86"/><circle class="cls-5" cx="435" cy="357" r="86"/><circle class="cls-6" cx="564" cy="357" r="86"/><circle class="cls-7" cx="685" cy="357" r="86"/><circle class="cls-8" cx="804" cy="357" r="86"/><circle class="cls-9" cx="930" cy="357" r="86"/><circle class="cls-10" cx="1047" cy="357" r="86"/><circle class="cls-11" cx="1166" cy="357" r="86"/><text class="cls-12" transform="translate(226.24 181.86) scale(0.88 1)">Brand Scheme</text><text class="cls-12" transform="translate(368.24 1123.86) scale(0.88 1)">Font <tspan class="cls-13" x="404.04" y="0">T</tspan><tspan x="492.77" y="0">ype</tspan></text><text class="cls-14" transform="translate(195.74 597.97)">#083736</text><text class="cls-14" transform="translate(552.29 597.94)">#6BD4D3</text><text class="cls-14" transform="translate(880.21 597.91)">#9A5833</text><text class="cls-14" transform="translate(1201.13 597.91)">#E66EB2</text><text class="cls-14" transform="translate(195.74 814.42)">#007A78</text><text class="cls-14" transform="translate(552.29 814.39)">#66381F</text><text class="cls-14" transform="translate(880.21 814.36)">#EFBC9F</text><text class="cls-14" transform="translate(1201.13 814.36)">#FFEC29</text><circle class="cls-4" cx="128.72" cy="580.85" r="58.82"/><circle class="cls-5" cx="128.72" cy="799.18" r="58.82"/><circle class="cls-6" cx="472.31" cy="580.82" r="58.82"/><circle class="cls-7" cx="472.31" cy="799.15" r="58.82"/><circle class="cls-8" cx="805.46" cy="580.82" r="58.82"/><circle class="cls-9" cx="805.46" cy="799.15" r="58.82"/><circle class="cls-10" cx="1129.19" cy="580.82" r="58.82"/><circle class="cls-11" cx="1129.19" cy="799.15" r="58.82"/></g></g></svg>