<svg xmlns="http://www.w3.org/2000/svg" viewBox="0 0 1418 1320"><defs><style>.cls-1{fill:#004544;}.cls-2{fill:#fff;}.cls-3{fill:#ffec29;}.cls-4{fill:#028386;}.cls-5{fill:#17d4b9;}.cls-6{fill:#08dfbd;}.cls-7{fill:#00928c;}.cls-8{fill:#006466;}.cls-9{fill:#061422;}.cls-10{fill:#01243a;}</style></defs><g id="Layer_2" data-name="Layer 2"><g id="Layer_1-2" data-name="Layer 1"><rect class="cls-1" width="1418" height="1320"/><path class="cls-2" d="M1057,572.5c0,114.44-55.8,215.85-141.68,278.5a344.64,344.64,0,0,0-405.64,0C423.8,788.35,368,686.94,368,572.5,368,382.24,522.24,228,712.5,228S1057,382.24,1057,572.5Z"/><path class="cls-2" d="M424.59,911.63l-1,8.35q-.28,2.78-.65,7.32l-.44,5.86-.74.81h-4.24l-.74-.74q-.15-9.88-1.17-11.28-1.68-2.26-20.43-2.27-3,0-9.45.44-.81,7.47-.81,26.81v9.89l8.28.22q3.74.08,13.84-.3a3,3,0,0,0,2.64-1.09q1.09-1.77,1.32-9.67l.73-.73h4.54l.73.73q-.29,8.21-.29,15,0,7.39.29,16.19l-.73.66H411.4l-.73-.73q0-7.7-.66-9-1.25-2.57-7.54-3.08c-2.88-.24-5.72-.37-8.5-.37-3.37,0-6.37.08-9,.22v17.44q0,17.36,1,22.7a3.18,3.18,0,0,0,2.49,2.71q.51.15,10.47.73l.73.74v4.9l-.8.74-29.45-.44q-6.3-.07-17.43.44l-.73-.66v-5l.73-.74a78.6,78.6,0,0,0,8.57-.73A3.18,3.18,0,0,0,363,1005q.94-5.34.95-22.7V943.56q0-17.35-.95-22.7a3.18,3.18,0,0,0-2.49-2.71,80.1,80.1,0,0,0-8.57-.74l-.73-.73v-5l.73-.66q7,.44,22.56.44,10,0,49.36-.44Z"/><path class="cls-2" d="M475.93,1014.17l-.73.73q-7-.51-20.07-.51t-20,.51l-.73-.73v-4.47l.73-.73q7-.22,8.72-1.1c1-.44,1.51-1.61,1.61-3.52q.51-9.52.51-20.43V973.44q0-14.21-1.09-16.84-.6-1.47-3.15-1.83c-.59-.1-2.71-.22-6.38-.37l-.73-.73v-4.1l.73-.81a121.84,121.84,0,0,0,28.35-6.08l1.54,1q-1,13.33-1,22.49v23.36q0,5.35.52,14.87c.09,1.91.63,3.08,1.61,3.52s4,1,8.71,1.1l.81.73Zm-10.11-95.59a11,11,0,0,1-3.29,8,11.13,11.13,0,0,1-15.9,0,11.39,11.39,0,0,1,8-19.44,10.82,10.82,0,0,1,7.87,3.3A11,11,0,0,1,465.82,918.58Z"/><path class="cls-2" d="M528.88,1004.79q-.51.59-3.15,3.08-4.32,4.1-7.39,7.47a23.3,23.3,0,0,1-7.25,1.17q-10.18,0-14.87-5.93a14,14,0,0,1-2.64-5.94,57.2,57.2,0,0,1-.66-10.54l.22-17.51V958.28h-2l-3.88.15h-3l-.81-.66v-1.9l.59-1.1c.88-.59,2.24-1.47,4.1-2.64a47.58,47.58,0,0,0,5-3.44v-10q0-6.22-.58-13.19,5.49-1.75,8.89-3.11t9.64-4.43l1.9,1.46q-.88,9.09-1.24,16.26l-.66,12.67h2.41q8,0,13.77-.51l.81.81-1,8.57-.73.73H511.09v24.83q0,11.94.29,14.06a7.44,7.44,0,0,0,2.6,5,9,9,0,0,0,6,1.91,21,21,0,0,0,7.25-1.62Z"/><path class="cls-3" d="M627.39,1013.87l-.73.74-14.94-.22q-3.66-.07-12.82.22-2.19-2.72-7.17-11.94l-15.24-28.2-5.78,8.28q-11,15.74-20.37,31.86c-2.24-.15-4.49-.22-6.73-.22q-6.83,0-10,.22l-.73-.74v-4.68l.73-.81c4-.29,6.42-.71,7.26-1.25q2.19-1.38,10-11.93l9.59-13q.59-.72,11.72-15.82l-5.57-9.81-8.93-15.46q-9.52-16.39-14.5-19.41a6.73,6.73,0,0,0-3.52-1c-1,0-2.49.07-4.54.22l-1-.73-.59-3.89.66-1.09q10.34-2.13,26.59-5.86,4.6,3,9.52,10.84,2.34,3.81,7.32,13l8.28,15.38,9.52-13.91q11.79-17.3,15.31-23.51,3,.28,5.93.29,4.9,0,10-.29l.73.73v4.83l-.73.74q-5.05.07-6.7,1.09t-6.41,7Q608.8,931.48,601,942q-4.32,5.87-10.55,14.58,3.66,6.74,10.47,19l9.38,16.11q7.75,13.34,9.78,15.05t6.55,1.72l.73.74Z"/><path class="cls-2" d="M693.17,1005.16l-3.23,7.25a42.14,42.14,0,0,1-19.63,5.2q-16.32,0-25-9.38t-8.64-25.7q0-15.09,6.66-22.93a38.62,38.62,0,0,1,7-5.79q10.54-7.47,14.1-8.93t10.87-1.47q10,0,16.48,3l.74,1.32q-.07.94-1,6.81l-.8,5q-.23,1.25-.66,9.81l-.74.73h-4.39l-.73-.73a68.93,68.93,0,0,0-1-9.08q-3.23-5.71-12.38-5.71-15.53,0-15.52,20.14,0,14.65,6.22,23.07,6.38,8.72,17.95,8.72a24.74,24.74,0,0,0,12.37-3Z"/><path class="cls-2" d="M785.16,1014.09l-.73.81q-8.07-.51-13.63-.51-5.13,0-14.94.51l-.73-.73q1.32-16.33,1.32-25.2V974.62q0-17.88-12.89-17.88-6.88,0-10.7,4.76a15.15,15.15,0,0,0-3.07,9.82V980q0,14.88.51,24.39c.1,1.91.63,3.08,1.61,3.52s4,1,8.72,1.1l.8.73v4.47l-.73.73q-7-.51-20.07-.51t-20,.51l-.74-.73v-4.47l.74-.73c4.68-.15,7.59-.52,8.71-1.1s1.52-1.61,1.61-3.52q.51-9.52.52-33.32V946.49q0-15.37-.52-24.9c-.09-1.81-.63-3-1.61-3.55s-3.81-.92-8.49-1.07l-.74-.8v-4l.74-.81a143.6,143.6,0,0,0,28.34-6.08l1.54.88q0,2-.22,7.25-.74,17.52-.73,38.75v4.1l12.89-10.84a27.74,27.74,0,0,1,10.62-2q11.64,0,17.43,7,4.68,5.7,4.69,16.77,0,1.24-.3,8.93t-.29,14q0,11.07.37,14.1c.24,2,.8,3.31,1.68,3.85s3.42.85,7.62.95l.66.73Z"/><path class="cls-2" d="M859.87,1014l-.81.8q-6.15-.36-14.14-.36-6.23,0-11.93.36l-.66-.8.66-9.82L818.78,1015a9.67,9.67,0,0,1-4.84,1.54,24.78,24.78,0,0,1-2.93.15q-8.13,0-12.49-4.91t-4.35-13.55q0-11.43,7.25-16.19,7.83-5.19,31.57-9.37,0-11.65-6.16-15.6a16.1,16.1,0,0,0-8.93-2.42q-5.71,0-9,2.34l-2.78,6.82-1,.51-3.73-.88-.51-1,.36-8.64q12.09-8.94,18.17-10.11a35.24,35.24,0,0,1,6.66-.51q14.43,0,20.58,7.55,4.47,5.49,4.47,16.84c0,1.86-.07,4.83-.22,8.94q-.37,10.24-.37,13.69,0,11.07.37,14.1c.24,2,.82,3.31,1.72,3.85s3.06.85,6.48.95l.74.8ZM833,996.88v-18q-12.09,2.64-16.3,5.68t-4.21,9.26q0,10,8.71,10Q828.59,1003.77,833,996.88Z"/><path class="cls-2" d="M951.78,1014.09l-.73.81q-8.06-.51-13.62-.51-5.13,0-14.94.51l-.74-.73q1.32-16.33,1.32-25.2V974.62q0-17.88-12.89-17.88-6.73,0-10.54,4.62a12.27,12.27,0,0,0-3.23,7.84v13.69q0,19,1,23.29.58,2.57,8.49,2.71l.73.73v4.47l-.73.74q-6.23-.45-18.6-.44-13.11,0-20,.51l-.73-.73v-4.47l.73-.73c4.69-.15,7.59-.52,8.72-1.1s1.51-1.61,1.61-3.52q.51-9.52.51-20.43V973.44q0-14.64-1.1-16.84-.72-1.47-3.15-1.83c-.58-.1-2.71-.22-6.37-.37l-.73-.73v-4.1l.73-.81a126.27,126.27,0,0,0,27.76-6.08l1.61,1-.14,12.31,12.59-10.55a27.81,27.81,0,0,1,10.62-2q11.66,0,17.44,7,4.68,5.7,4.68,16.77,0,1.24-.29,10.18t-.29,12.74q0,11.07.36,14.1c.25,2,.81,3.31,1.69,3.85s3.41.85,7.61.95l.66.73Z"/><path class="cls-2" d="M1036.75,1019.44q0,16-12,25.56t-31.31,9.52q-15.16,0-24-5.67t-8.82-15.27q0-6.45,2.85-9.75.3-.36,7.77-4.83,3.59-2.13,5.27-3-10.11-1.75-10.11-9.74a15.58,15.58,0,0,1,2.93-8.65q.23-.29,4-2.93c1.17-.83,3.24-2.31,6.22-4.46q-15.81-5.72-15.82-21.17,0-11.94,8.94-19.23t23.8-7.28q14.35,0,22.49,6.37,4.6.21,5.93.14c2.39-.09,6-.22,10.84-.36l.88.8-.81,7.55-.8.73h-10.84a27.54,27.54,0,0,1,.95,7.18q0,17.43-16.92,23.8a42.43,42.43,0,0,1-15,2.86q-2.49,0-6.45-.37c-3.08,1.66-4.61,3.84-4.61,6.52q0,3.74,5.34,4.25,3.07.29,10.26.29,2.26,0,7.91-.22t8.35-.22q16.54,0,20.58,7.33A21,21,0,0,1,1036.75,1019.44Zm-16.78,8.35q0-8-5.56-10c-1.57-.58-4.69-.9-9.38-1l-13.91-.14c-1.57,0-3.72,0-6.45.14q-10,6.23-10,14.28a13.43,13.43,0,0,0,5.93,11.61q5.92,4.21,15.89,4.22,10.69,0,17.1-5.17T1020,1027.79Zm-13.33-59.55q0-18.45-12.38-18.45-12.15,0-12.15,16,0,18.9,12.67,18.9Q1006.65,984.65,1006.64,968.24Z"/><path class="cls-2" d="M1108,973.3c0,.83,0,2.07-.07,3.73l-.81,1q-9.66,2.64-25.63,2.63-2.87,0-8.65.11c-3.85.08-6.76.11-8.71.11q.43,10.77,6.66,17.8a21.4,21.4,0,0,0,17,7.55q7,0,16.7-4.84l1.76,2.13-3.22,7.25a42.41,42.41,0,0,1-23.22,6.81q-16.47,0-25.6-9.3t-9.12-26.52q0-20.43,9.75-28,13.47-10.39,25.56-10.4,13.11,0,20.29,7.55Q1108,958.71,1108,973.3Zm-19.12-1.91q0-19.77-12.3-19.77-13,0-13,19.63v1.61a115,115,0,0,0,15.09.66,69.72,69.72,0,0,0,10.11-.66C1088.87,972.17,1088.89,971.69,1088.89,971.39Z"/><path d="M832,610c0,17.58-4.43,34.32-20,44.65-5.87,3.9-12.53,5.46-19.19,7.43a7.87,7.87,0,0,0-3.09,1.38L711.52,735.4c-6.85,4.86-13.73,9.7-20.82,14.18-.22.15-.43.29-.67.43a.07.07,0,0,1,0,0c-1.22.79-2.51,1.7-3.85,2.54v0a37.28,37.28,0,0,1-7.31,3.21,37.92,37.92,0,0,1-27-1.48,96.32,96.32,0,0,1-18.5-9.25.85.85,0,0,0-.17-.1c-1.74-1.1-3.59-2.3-5.48-3.59-.6-.41-1.2-.81-1.85-1.27s-1.24-.86-1.91-1.29c-5.56-3.88-12.63-9-20.48-14.76l-3-2.18L597,719.35l-3.3-2.44c-2.92-2.18-5.92-4.39-8.94-6.64-32.86-24.46-69.61-52.6-71.31-53.92l-.07,0A37.82,37.82,0,0,1,535,587.48a38.56,38.56,0,0,1,9.73,1.27,37,37,0,0,1,3.69,1.2h0c1.8.86,4.27,2.08,7.38,3.81,13.08,7.16,37.8,22.78,73.69,54,7.45,5.72,14.32,12,21.1,18.32,4.91,4.63,9.82,9.3,14.85,13.9,2.57,2.32,3.14,1.32,6.52-.46l.47-.24.36-.18.2-.1.47-.24.26-.13,4.64-2.31q.27-.15.54-.27c18.81-9.41,70.48-35.09,86.34-41.61-.67,0-5.87-9.73-6.3-10.78a38.2,38.2,0,0,1-2.54-13.7,37.8,37.8,0,1,1,75.6,0Z"/><path class="cls-4" d="M633.18,745a29.41,29.41,0,0,1-4.91,6.52,4.51,4.51,0,0,1-2.06,1.29h0a4.91,4.91,0,0,1-2.71-.57c-21.58-9.32-43.14-18.62-63.67-30.09-21.22-11.88-39.09-26.61-58.38-41.08a334.35,334.35,0,0,1-25.84-25.92c-2.38-2.64-4.77-5.49-5.49-9-1.87-9.22,4.34-19.95,10.16-29.13,20.93,53.28,66.42,93.62,122,106.19.39.29.79.58,1.18.84,7.85,5.8,14.92,10.88,20.48,14.76l1.91,1.29c.65.46,1.25.86,1.85,1.27C629.59,742.68,631.44,743.88,633.18,745Z"/><path class="cls-5" d="M650.62,665.81c0,.1,0,.22,0,.31-6.78-6.34-13.65-12.6-21.1-18.32-35.89-31.26-60.61-46.88-73.69-54-3.11-1.73-5.58-3-7.38-3.81h0a37,37,0,0,0-3.69-1.2,38.56,38.56,0,0,0-9.73-1.27,37.82,37.82,0,0,0-21.6,68.85l.07,0c1.7,1.32,38.45,29.46,71.31,53.92,3,2.25,6,4.46,8.94,6.64l3.3,2.44,3.48,2.54c.6.46,1.19.91,1.79,1.34-55.6-12.57-101.09-52.91-122-106.19l.14-.22c2.23-3.52,4.43-6.82,6.06-9.7q12.41-21.84,24.8-43.67c3.11-5.48,8.24-13.7,15.76-12.24,5.24,1,10.2,7.48,13.75,11.09,4.84,5,9.46,10.23,14.18,15.36A269.52,269.52,0,0,0,584.65,605c12,9.66,24.29,19,36.05,29,6,5.1,11.86,10.34,17.49,15.85C642,653.52,651.49,660.23,650.62,665.81Z"/><ellipse class="cls-6" cx="609.69" cy="480.83" rx="78.3" ry="80.55"/><path class="cls-7" d="M686,498.55c-7.95,35.82-39.11,62.54-76.33,62.54-43.25,0-78.31-36.07-78.31-80.56a81.23,81.23,0,0,1,31.22-64.37,83.55,83.55,0,0,0-2,18c0,44.49,35.06,80.56,78.31,80.56A76.56,76.56,0,0,0,686,498.55Z"/><path class="cls-8" d="M673.75,528.26c-14.2,20.33-37.4,33.58-63.61,33.58-43.25,0-78.31-36.07-78.31-80.56a81.11,81.11,0,0,1,34.49-66.77,81.75,81.75,0,0,0-14.69,47c0,44.49,35.06,80.55,78.31,80.55A76.46,76.46,0,0,0,673.75,528.26Z"/><path d="M678.37,676.36l-4.64,2.31C675.26,677.86,676.81,677.1,678.37,676.36Z"/><path class="cls-9" d="M686.13,752.6a20.36,20.36,0,0,1-7.31,3.21A37.28,37.28,0,0,0,686.13,752.6Z"/><path class="cls-9" d="M555.81,593.76c-3.11-1.73-5.58-3-7.38-3.81A37.08,37.08,0,0,1,555.81,593.76Z"/><path class="cls-9" d="M548.41,590a37,37,0,0,0-3.69-1.2l.17-.36S546.06,588.82,548.41,590Z"/><path class="cls-10" d="M794.2,443.11s-23.85-4.58-3.15-36.08c27-27.9,64.5-7.13,67.35,18S839.65,463.73,837,464.63c-.9,2.7-1.8,14.4-1.8,14.4q17,9.83,33.9,19.76,34.35,20.12,68.49,40.59c18,10.83,36.31,21.41,53.44,33.56,6.57,4.66,12.34,10.08,13.85,18.41a29.42,29.42,0,0,1-2.81,18,25.11,25.11,0,0,1-9,10.47c-9,5.53-20.88,3.18-30.87,3.18l-37.5,0-75,.06c-4.64,0-8.92-.47-11.23-5.09-2.2-4.38-4.53-13.43,1.35-16.12A14.9,14.9,0,0,1,846,601c34.33,0,68.56.1,102.83-1.34,2.74-.12,33.12-.42,33.08-.15a12.07,12.07,0,0,0-.25-3.53,3.23,3.23,0,0,0-.3-1.06,3.13,3.13,0,0,0-1.19-1c-22.52-13.22-45-26.56-67.46-39.84L842,512.34l-19-11.26L678.09,593.79c-.79,2.41-2.12,6.76,1.63,6.76l31.38,0c9.82,0,20.26-1,29.95.44,5,.74,2,11.21,1.39,14.67-1,5.56-4.1,8.33-9.59,8-19.16-1-38.43-.48-57.61-.52a25.14,25.14,0,0,1-7.4-.74c-8.84-2.71-14.54-13.57-14.05-22.32.9-16.2,6.3-21.6,6.3-21.6s77.4-54,108.91-73.81,45-25.2,45-25.2v-24.3s.9-3.6,7.2-6.3c8.84-3.79,19.07-13.18,13.66-23.72a15.75,15.75,0,0,0-12-8.06c-4.46-.55-11.07.62-14.09,4.22-2,2.42-2.76,6.39-3.63,9.33C803.56,436,801.56,444.52,794.2,443.11Z"/><circle class="cls-3" cx="736.99" cy="611.69" r="11.7"/><circle class="cls-3" cx="846.11" cy="611.69" r="11.7"/></g></g></svg>